PathFileType	4	(X/Y/Z)	/Users/itak/Documents/Research/Walk-IL/dataset/trc/00424_00167.trc
DataRate	CameraRate	NumFrames	NumMarkers	Units	OrigDataRate	OrigDataStartFrame	OrigNumFrames
100.000000	100.000000	4	55	mm	100.000000	0	636
Frame#	Time	RPSI			LPSI			L3			STRN			T10			C7			CLAV			RBAK			LBAK			LSHO			LUPA			LAEL			LAOL			LWTS			LWPS			LFRA			LIFD			LHPS			LHTS			RSHO			RUPA			RAEL			RAOL			RWTS			RWPS			RFRA			RIFD			RHTS			RHPS			RBHD			LFHD			RFHD			LBHD			LHIP			RHIP			RASI			LASI			LKNE			LTHI			LANK			LTIP			LTOE			LMT1			LMT5			LHEE			RKNE			RTHI			RANK			RTIP			RTOE			RMT1			RMT5			RHEE			*53			*54			
		X1	Y1	Z1	X2	Y2	Z2	X3	Y3	Z3	X4	Y4	Z4	X5	Y5	Z5	X6	Y6	Z6	X7	Y7	Z7	X8	Y8	Z8	X9	Y9	Z9	X10	Y10	Z10	X11	Y11	Z11	X12	Y12	Z12	X13	Y13	Z13	X14	Y14	Z14	X15	Y15	Z15	X16	Y16	Z16	X17	Y17	Z17	X18	Y18	Z18	X19	Y19	Z19	X20	Y20	Z20	X21	Y21	Z21	X22	Y22	Z22	X23	Y23	Z23	X24	Y24	Z24	X25	Y25	Z25	X26	Y26	Z26	X27	Y27	Z27	X28	Y28	Z28	X29	Y29	Z29	X30	Y30	Z30	X31	Y31	Z31	X32	Y32	Z32	X33	Y33	Z33	X34	Y34	Z34	X35	Y35	Z35	X36	Y36	Z36	X37	Y37	Z37	X38	Y38	Z38	X39	Y39	Z39	X40	Y40	Z40	X41	Y41	Z41	X42	Y42	Z42	X43	Y43	Z43	X44	Y44	Z44	X45	Y45	Z45	X46	Y46	Z46	X47	Y47	Z47	X48	Y48	Z48	X49	Y49	Z49	X50	Y50	Z50	X51	Y51	Z51	X52	Y52	Z52	X53	Y53	Z53	X54	Y54	Z54	X55	Y55	Z55	

1	0	-1156.369384765625	969.9204711914062	-464.293701171875	-1075.013671875	966.4317016601562	-578.88818359375	-1115.426635742188	1060.16552734375	-508.5260620117188	-889.381103515625	1253.291381835938	-377.1581726074219	-1131.346069335938	1183.325073242188	-527.2041625976562	-1087.510009765625	1450.912841796875	-479.84765625	-919.9080810546875	1366.83251953125	-400.4224548339844	-1188.53076171875	1330.638061523438	-429.498291015625	-1059.61572265625	1404.78125	-584.9210205078125	-928.1876220703125	1427.249145507812	-597.1696166992188	-873.0157470703125	1305.746215820312	-679.622802734375	-826.4349365234375	1088.100708007812	-675.61767578125	-928.7554931640625	1072.060791015625	-683.5476684570312	-797.7260131835938	889.82763671875	-577.0472412109375	-792.847412109375	871.3422241210938	-648.921142578125	-803.1822509765625	1001.902465820312	-661.7926025390625	-787.9995727539062	716.9400024414062	-574.1751708984375	-788.6080322265625	790.876708984375	-639.5422973632812	-768.1686401367188	808.5293579101562	-574.38427734375	-1105.357543945312	1414.842895507812	-302.5554504394531	-1152.366943359375	1348.720336914062	-243.1593475341797	-1148.455932617188	1059.918701171875	-186.7078247070312	-1189.121948242188	1041.785034179688	-238.0285034179688	-1032.35498046875	864.1070556640625	-204.9042358398438	-1112.663208007812	846.2167358398438	-173.0449829101562	-1144.716552734375	1000.921020507812	-177.9332122802734	-1028.400390625	705.2123413085938	-189.0843200683594	-1018.316589355469	766.1636962890625	-184.184814453125	-1092.538208007812	760.6965942382812	-168.2760314941406	-1073.788818359375	1641.396362304688	-366.0557556152344	-876.316650390625	1669.076782226562	-424.9787292480469	-947.3209838867188	1665.06298828125	-314.0345764160156	-991.8099975585938	1650.884887695312	-523.8233032226562	-901.6275634765625	859.3303833007812	-598.6787719726562	-1143.1533203125	864.4290161132812	-285.3206481933594	-1019.389587402344	904.8365478515625	-271.2258605957031	-861.6534423828125	895.9168090820312	-478.2539672851562	-936.0675659179688	433.92822265625	-570.2713012695312	-897.0169677734375	586.2612915039062	-571.856201171875	-999.1987915039062	39.18413162231445	-596.5023803710938	-939.1698608398438	282.5065612792969	-577.5709228515625	-855.4263916015625	43.62558364868164	-410.5108032226562	-934.5552368164062	45.74184417724609	-429.79736328125	-871.1131591796875	49.46562957763672	-520.6544799804688	-1072.841674804688	35.86688613891602	-586.6988525390625	-1119.027709960938	464.0315246582031	-302.7299194335938	-1113.115478515625	727.9480590820312	-253.2751922607422	-1154.195190429688	43.64698028564453	-334.5819396972656	-1130.211791992188	317.4011535644531	-294.6444091796875	-949.6488647460938	48.44952774047852	-248.1572418212891	-981.0171508789062	56.76512908935547	-314.08984375	-1058.150146484375	47.50192642211914	-236.9157867431641	-1180.407470703125	31.90713310241699	-411.3419799804688	nan	nan	nan	nan	nan	nan	
2	0.01	-1156.324584960938	969.9513549804688	-464.3335571289062	-1074.995849609375	966.4638671875	-578.9156494140625	-1115.34130859375	1060.191284179688	-508.5679016113281	-889.2770385742188	1253.284423828125	-377.2237548828125	-1131.310791015625	1183.364135742188	-527.2120971679688	-1087.466674804688	1450.924194335938	-479.8352966308594	-919.7990112304688	1366.826293945312	-400.45068359375	-1188.475952148438	1330.645141601562	-429.4453735351562	-1059.65283203125	1404.813110351562	-584.9256591796875	-928.155029296875	1427.265625	-597.1974487304688	-872.9653930664062	1305.756713867188	-679.6683959960938	-826.3717651367188	1088.119873046875	-675.6715698242188	-928.6238403320312	1072.057006835938	-683.5884399414062	-797.546142578125	889.8821411132812	-577.0655517578125	-792.65869140625	871.3707275390625	-648.9385986328125	-803.069580078125	1001.941284179688	-661.8338012695312	-787.6934204101562	716.9821166992188	-574.12451171875	-788.4620361328125	790.9478149414062	-639.5625	-772.2462158203125	805.8004150390625	-572.7593383789062	-1105.2548828125	1414.84619140625	-302.5257873535156	-1152.22998046875	1348.73681640625	-243.1177825927734	-1148.326171875	1059.928833007812	-186.6744537353516	-1189.008544921875	1041.812377929688	-237.9882202148438	-1032.26513671875	864.1041259765625	-204.9318542480469	-1112.552001953125	846.217041015625	-173.01904296875	-1144.581665039062	1000.936157226562	-177.9010162353516	-1028.320556640625	705.1801147460938	-189.2226409912109	-1018.214965820312	766.1453857421875	-184.3043670654297	-1092.458251953125	760.6910400390625	-168.2725677490234	-1073.697998046875	1641.406616210938	-366.0599365234375	-876.1585693359375	1669.073120117188	-425.0068054199219	-947.1972045898438	1665.060180664062	-314.0544738769531	-991.7232055664062	1650.874267578125	-523.8314819335938	-901.646728515625	859.3399658203125	-598.6888427734375	-1143.136108398438	864.4489135742188	-285.3571166992188	-1019.360290527344	904.8458862304688	-271.26806640625	-861.6205444335938	895.9034423828125	-478.284423828125	-936.0396728515625	433.9195556640625	-570.3043212890625	-897.0507202148438	586.2826538085938	-571.9066772460938	-999.209228515625	39.18465805053711	-596.5151977539062	-939.1996459960938	282.5113525390625	-577.6118774414062	-855.4254150390625	43.63212585449219	-410.5098876953125	-934.5624389648438	45.75351715087891	-429.7935180664062	-871.10205078125	49.4655876159668	-520.68408203125	-1072.843505859375	35.87202835083008	-586.6937866210938	-1119.04150390625	464.0365905761719	-302.7573547363281	-1113.090698242188	727.9453735351562	-253.3245544433594	-1154.210815429688	43.6590461730957	-334.5614318847656	-1130.222778320312	317.4057922363281	-294.6622009277344	-949.65234375	48.44903564453125	-248.1596221923828	-981.0164794921875	56.76416397094727	-314.0908203125	-1058.143188476562	47.49472808837891	-236.9294586181641	-1180.405395507812	31.9116039276123	-411.3382873535156	nan	nan	nan	nan	nan	nan	
3	0.02	-1156.273803710938	969.98974609375	-464.3778381347656	-1074.96435546875	966.4940185546875	-578.94970703125	-1115.239624023438	1060.220703125	-508.6179504394531	-889.1484375	1253.276489257812	-377.3015747070312	-1131.265258789062	1183.41015625	-527.22021484375	-1087.404418945312	1450.938354492188	-479.8221435546875	-919.6688232421875	1366.81591796875	-400.4833679199219	-1188.399780273438	1330.656005859375	-429.3852233886719	-1059.694458007812	1404.854248046875	-584.9276733398438	-928.1095581054688	1427.2890625	-597.2290649414062	-872.899658203125	1305.774047851562	-679.7299194335938	-826.283203125	1088.148681640625	-675.7462158203125	-928.4614868164062	1072.045043945312	-683.6380004882812	-797.3016357421875	889.958251953125	-577.0974731445312	-792.4351196289062	871.40625	-648.9702758789062	-802.9277954101562	1001.988037109375	-661.8893432617188	-787.2827758789062	717.0307006835938	-574.0604858398438	-788.2598266601562	791.0411987304688	-639.5869750976562	-775.7299194335938	803.452392578125	-571.334716796875	-1105.123901367188	1414.850708007812	-302.4911804199219	-1152.056518554688	1348.755493164062	-243.0704193115234	-1148.1611328125	1059.94091796875	-186.6350860595703	-1188.866088867188	1041.845825195312	-237.9382934570312	-1032.15283203125	864.100830078125	-204.9659271240234	-1112.412841796875	846.2160034179688	-172.9850311279297	-1144.414184570312	1000.953552246094	-177.8638763427734	-1028.218139648438	705.1439819335938	-189.4034881591797	-1018.092895507812	766.1176147460938	-184.4509124755859	-1092.356079101562	760.6841430664062	-168.2714996337891	-1073.579467773438	1641.417602539062	-366.0633850097656	-875.9683837890625	1669.060180664062	-425.0440063476562	-947.0194702148438	1665.05322265625	-314.0815124511719	-991.6146240234375	1650.860961914062	-523.83837890625	-901.6627197265625	859.350341796875	-598.7007446289062	-1143.112182617188	864.466552734375	-285.3926696777344	-1019.343322753906	904.8516845703125	-271.3255004882812	-861.582275390625	895.8872680664062	-478.3229370117188	-936.0048828125	433.9099731445312	-570.3480834960938	-897.0910034179688	586.2969360351562	-571.9764404296875	-999.2183227539062	39.18496322631836	-596.5272827148438	-939.237060546875	282.5209655761719	-577.65673828125	-855.4251098632812	43.63982772827148	-410.5108642578125	-934.5669555664062	45.76657104492188	-429.7919921875	-871.0883178710938	49.460693359375	-520.7249755859375	-1072.846801757812	35.87614059448242	-586.6885986328125	-1119.058715820312	464.0413818359375	-302.7929382324219	-1113.065673828125	727.9445190429688	-253.3838958740234	-1154.229370117188	43.67242813110352	-334.5383911132812	-1130.238403320312	317.4114685058594	-294.6836242675781	-949.6560668945312	48.44729232788086	-248.1648254394531	-981.0162963867188	56.76454925537109	-314.0910034179688	-1058.137817382812	47.48746490478516	-236.9429931640625	-1180.40234375	31.91460227966309	-411.3346862792969	nan	nan	nan	nan	nan	nan	
4	0.03	-1156.22119140625	970.03369140625	-464.4221496582031	-1074.915771484375	966.5183715820312	-578.9890747070312	-1115.128662109375	1060.251342773438	-508.672119140625	-889.0012817382812	1253.26806640625	-377.3861999511719	-1131.2109375	1183.4599609375	-527.2281494140625	-1087.322143554688	1450.95458984375	-479.8096008300781	-919.5252075195312	1366.800537109375	-400.517822265625	-1188.301513671875	1330.671508789062	-429.3236083984375	-1059.734375	1404.901733398438	-584.9253540039062	-928.0508422851562	1427.318969726562	-597.261962890625	-872.8211669921875	1305.799438476562	-679.8063354492188	-826.1700439453125	1088.188110351562	-675.8408813476562	-928.2742919921875	1072.023315429688	-683.6948852539062	-796.9959716796875	890.0562133789062	-577.14599609375	-792.1886596679688	871.448974609375	-649.0175170898438	-802.7650146484375	1002.039916992188	-661.9588012695312	-786.7969360351562	717.0877685546875	-573.993896484375	-788.00341796875	791.1536865234375	-639.616455078125	-778.11083984375	801.8214111328125	-570.312744140625	-1104.968505859375	1414.856323242188	-302.4541931152344	-1151.854125976562	1348.775268554688	-243.0208892822266	-1147.96728515625	1059.954345703125	-186.5924682617188	-1188.70068359375	1041.883056640625	-237.8807525634766	-1032.022216796875	864.097412109375	-205.0057525634766	-1112.252197265625	846.2125244140625	-172.9434967041016	-1144.2216796875	1000.972717285156	-177.8236236572266	-1028.097290039062	705.10693359375	-189.6200561523438	-1017.957580566406	766.0796508789062	-184.6163635253906	-1092.234741210938	760.6754150390625	-168.2736968994141	-1073.434936523438	1641.427978515625	-366.06494140625	-875.7574462890625	1669.034790039062	-425.0902099609375	-946.7847900390625	1665.040771484375	-314.1159057617188	-991.4888305664062	1650.845581054688	-523.8421020507812	-901.6698608398438	859.3596801757812	-598.7138671875	-1143.083251953125	864.4794921875	-285.4243469238281	-1019.353332519531	904.849609375	-271.3989868164062	-861.5420532226562	895.8690795898438	-478.3682861328125	-935.9703979492188	433.9000854492188	-570.4030151367188	-897.134033203125	586.3009033203125	-572.0615234375	-999.2249145507812	39.18514633178711	-596.5369873046875	-939.2787475585938	282.5362548828125	-577.7005615234375	-855.4263305664062	43.64830780029297	-410.5149230957031	-934.5676879882812	45.78016662597656	-429.7937316894531	-871.0731811523438	49.45023727416992	-520.7747802734375	-1072.8515625	35.87859344482422	-586.6839599609375	-1119.078369140625	464.0451965332031	-302.8353881835938	-1113.044311523438	727.946044921875	-253.4495849609375	-1154.248657226562	43.68590927124023	-334.51513671875	-1130.258911132812	317.41796875	-294.70751953125	-949.659423828125	48.44439697265625	-248.1721649169922	-981.016845703125	56.76639556884766	-314.0901794433594	-1058.135375976562	47.48116302490234	-236.9540710449219	-1180.3984375	31.91555023193359	-411.3316955566406	nan	nan	nan	nan	nan	nan	
